<svg xmlns="http://www.w3.org/2000/svg" width="88.098" height="88.098" viewBox="0 0 88.098 88.098">
  <g id="Group_3130" data-name="Group 3130" transform="translate(-737 -8658)">
    <rect id="Rectangle_440" data-name="Rectangle 440" width="88.098" height="88.098" transform="translate(737 8658)" fill="#58c0dd"/>
    <g id="Group_3129" data-name="Group 3129" transform="translate(2.92 5.849)">
      <path id="Path_4284" data-name="Path 4284" d="M36.871,160.925a7.205,7.205,0,0,0,4.935-1.852,8.744,8.744,0,0,1,5.829-2.148,8.14,8.14,0,0,1,4.288,1.1l.586-6.756H32l.727,8.372a6.611,6.611,0,0,0,4.14,1.283" transform="translate(737 8558.01)" fill="#fff"/>
      <path id="Path_4285" data-name="Path 4285" d="M47.635,158.425a7.207,7.207,0,0,0-4.934,1.852,8.748,8.748,0,0,1-5.829,2.148,8.17,8.17,0,0,1-3.98-.934l1.113,12.827h16.5l1.267-14.611a6.621,6.621,0,0,0-4.142-1.282m-5.378,14.582A3.507,3.507,0,0,1,38.75,169.5c0-1.938,3.507-5.975,3.507-5.975s3.507,4.037,3.507,5.975a3.507,3.507,0,0,1-3.507,3.507" transform="translate(737 8558.01)" fill="#fff"/>
      <text id="_06" data-name="06" transform="translate(771.225 8675.151)" fill="#fff" font-size="14" font-family="Roboto-Bold, Roboto" font-weight="700"><tspan x="0" y="0">06</tspan></text>
      <text id="CLEAN_WATER_" data-name="CLEAN WATER " transform="translate(751.567 8688.525)" fill="#fff" font-size="8" font-family="Roboto-Bold, Roboto" font-weight="700"><tspan x="0" y="0">CLEAN </tspan><tspan y="0" letter-spacing="-0.021em">W</tspan><tspan y="0" letter-spacing="-0.058em">A</tspan><tspan y="0">TER </tspan></text>
      <text id="AND_SANITATION" data-name="AND SANITATION" transform="translate(747.08 8698.125)" fill="#fff" font-size="8" font-family="Roboto-Bold, Roboto" font-weight="700"><tspan x="0" y="0">AND SANI</tspan><tspan y="0" letter-spacing="-0.059em">T</tspan><tspan y="0" letter-spacing="-0.058em">A</tspan><tspan y="0">TION</tspan></text>
    </g>
  </g>
</svg>
