<svg xmlns="http://www.w3.org/2000/svg" width="88.098" height="88.098" viewBox="0 0 88.098 88.098">
  <g id="Group_3131" data-name="Group 3131" transform="translate(-1094 -8658)">
    <rect id="Rectangle_449" data-name="Rectangle 449" width="88.098" height="88.098" transform="translate(1094 8658)" fill="#6d9065"/>
    <g id="Group_3114" data-name="Group 3114" transform="translate(-1805.438 6563.862)">
      <g id="Group_3113" data-name="Group 3113" transform="translate(0.028)">
        <path id="Path_4308" data-name="Path 4308" d="M263.843,260.286c-.347-.4-8.639-9.669-19.1-9.669s-18.757,9.274-19.1,9.669a.9.9,0,0,0,0,1.19c.348.395,8.641,9.669,19.1,9.669s18.757-9.274,19.1-9.669a.9.9,0,0,0,0-1.19m-19.1,9.058c-8.174,0-15.192-6.445-17.187-8.463,1.995-2.017,9.013-8.463,17.187-8.463s15.194,6.447,17.189,8.464c-1.993,2.017-9,8.462-17.189,8.462" transform="translate(2699 1902)" fill="#fff"/>
        <path id="Path_4309" data-name="Path 4309" d="M244.241,256.122c-.379.516-1.041.748-1.48,1.221-.662.714-.4,1.635-.473,2.607-.086,1.161-2.012,1.694-2.262-1.05-.043-.473-.912-.2-1.359-.043a3.831,3.831,0,0,1-1.359.353,1.416,1.416,0,0,1-.74-.258,8.4,8.4,0,0,1,7.776-6.46,3.167,3.167,0,0,0-.017.9c.12.912.516,1.884-.086,2.727" transform="translate(2699 1902)" fill="#fff"/>
        <path id="Path_4310" data-name="Path 4310" d="M240.577,267.442a.991.991,0,0,1-.189.619,8.363,8.363,0,0,1-4.017-6.451,6.437,6.437,0,0,0,1.54.052,4.025,4.025,0,0,1,1.728.189c.25.1.517.31.508.585-.009.3-.327.482-.576.654a1.987,1.987,0,0,0-.757.946,1.512,1.512,0,0,0,.034,1.195,3.433,3.433,0,0,0,.989,1.033,1.733,1.733,0,0,1,.74,1.178" transform="translate(2699 1902)" fill="#fff"/>
        <path id="Path_4311" data-name="Path 4311" d="M253.144,260.879a8.4,8.4,0,0,1-8.137,8.395,1.23,1.23,0,0,1,.249-.654,3.11,3.11,0,0,1,1.858-.989,5.673,5.673,0,0,0,2.03-.7,2.8,2.8,0,0,0,1.015-2.821,4.262,4.262,0,0,0-1.78-2.546,3.658,3.658,0,0,1-.7-.568.861.861,0,0,1-.189-.834c.172-.413.7-.507,1.144-.516a13.786,13.786,0,0,1,3.2.292,6.346,6.346,0,0,0,1.274.19c.025.249.034.5.034.748" transform="translate(2699 1902)" fill="#fff"/>
      </g>
      <text id="_13" data-name="13" transform="translate(2935.438 2119.138)" fill="#fff" font-size="14" font-family="Roboto-Bold, Roboto" font-weight="700"><tspan x="0" y="0">13</tspan></text>
      <text id="CLIMATE_ACTION" data-name="CLIMATE ACTION" transform="translate(2911.438 2132.512)" fill="#fff" font-size="8" font-family="Roboto-Bold, Roboto" font-weight="700"><tspan x="0" y="0">CLIM</tspan><tspan y="0" letter-spacing="-0.059em">A</tspan><tspan y="0">TE A</tspan><tspan y="0" letter-spacing="-0.015em">C</tspan><tspan y="0">TION</tspan></text>
    </g>
  </g>
</svg>
