<svg xmlns="http://www.w3.org/2000/svg" width="88.098" height="88.098" viewBox="0 0 88.098 88.098">
  <g id="Group_3128" data-name="Group 3128" transform="translate(-975 -8658.01)">
    <rect id="Rectangle_441" data-name="Rectangle 441" width="88.098" height="88.098" transform="translate(975 8658.01)" fill="#f8af5f"/>
    <g id="Group_3111" data-name="Group 3111" transform="translate(-1724 6561.872)">
      <g id="Group_3110" data-name="Group 3110" transform="translate(1.738)">
        <path id="Path_4303" data-name="Path 4303" d="M28.262,251.9v22.636H41.391V248.548Zm5.877,17.72H31.044v-2.3h3.095Zm0-5.408H31.044v-2.3h3.095Zm0-5.407H31.044v-2.3h3.095Zm4.47,10.815h-3.1v-2.3h3.1Zm0-5.408h-3.1v-2.3h3.1Zm0-5.407h-3.1v-2.3h3.1Z" transform="translate(2699 1902)" fill="#fff"/>
        <path id="Path_4304" data-name="Path 4304" d="M56.251,261.955v12.581H53.089v-3.6a3.4,3.4,0,0,0-6.793,0v3.6H43.123V261.955Z" transform="translate(2699 1902)" fill="#fff"/>
        <path id="Path_4305" data-name="Path 4305" d="M43.08,260.534l6.563-6.7,6.564,6.7Z" transform="translate(2699 1902)" fill="#fff"/>
      </g>
      <text id="_11" data-name="11" transform="translate(2735 2119.138)" fill="#fff" font-size="14" font-family="Roboto-Bold, Roboto" font-weight="700"><tspan x="0" y="0">11</tspan></text>
      <text id="SUSTAINABLE_CITIES_" data-name="SUSTAINABLE CITIES " transform="translate(2708 2132.512)" fill="#fff" font-size="7" font-family="Roboto-Bold, Roboto" font-weight="700"><tspan x="0" y="0">SUS</tspan><tspan y="0" letter-spacing="-0.058em">T</tspan><tspan y="0">AINABLE CITIES </tspan></text>
      <text id="AND_COMMUNITIES" data-name="AND COMMUNITIES" transform="translate(2711 2140.912)" fill="#fff" font-size="7" font-family="Roboto-Bold, Roboto" font-weight="700"><tspan x="0" y="0">AND COMMUNITIES</tspan></text>
    </g>
  </g>
</svg>
